<?xml version="1.0" encoding="UTF-8" standalone="no"?>
<!-- Created with Inkscape (http://www.inkscape.org/) -->

<svg
   width="210mm"
   height="297mm"
   viewBox="0 0 210 297"
   version="1.1"
   id="svg1"
   xml:space="preserve"
   sodipodi:docname="bitmapa.svg"
   inkscape:export-filename="Desktop/folder bez nazwy/bitmapa.png"
   inkscape:export-xdpi="96"
   inkscape:export-ydpi="96"
   xmlns:inkscape="http://www.inkscape.org/namespaces/inkscape"
   xmlns:sodipodi="http://sodipodi.sourceforge.net/DTD/sodipodi-0.dtd"
   xmlns="http://www.w3.org/2000/svg"
   xmlns:svg="http://www.w3.org/2000/svg"><sodipodi:namedview
     id="namedview1"
     pagecolor="#ffffff"
     bordercolor="#cccccc"
     borderopacity="1"
     inkscape:showpageshadow="0"
     inkscape:pageopacity="1"
     inkscape:pagecheckerboard="0"
     inkscape:deskcolor="#d1d1d1"
     inkscape:document-units="mm" /><defs
     id="defs1" /><g
     inkscape:label="Warstwa 1"
     inkscape:groupmode="layer"
     id="layer1"><g
       style="clip-rule:evenodd;fill-rule:evenodd;stroke-linejoin:round;stroke-miterlimit:2"
       id="g1"
       transform="matrix(0.23490708,0,0,0.24824234,-44.638477,-21.31335)"><g
         transform="matrix(0.99631554,0,0,0.99539386,0.88096725,-1444.4629)"
         id="g3">&#10;        <g
   inkscape:groupmode="layer"
   id="layer1-9"
   inkscape:label="Layer 1"><path
     d="m 452.535,2389.14 -169.561,-118.89 -87.906,-261.38 53.981,-170.52 155.447,-87.32 234.504,-51.78 234.504,51.78 155.446,87.32 53.98,170.52 -87.904,261.38 -169.561,118.89 59.337,88.19 -13.332,1.95 -209.574,24.55 -22.896,16.05 -22.896,-16.05 -209.574,-24.55 -13.59,-1.57 z m 177.854,-391.36 -0.697,-279.41 -212.445,46.91 10.033,32.28 z m 0.121,174.21 0.157,-62.99 -0.219,-87.76 -192.68,-189.94 139.721,449.51 z m -47.281,127.29 46.589,149.89 0.603,-241.5 z M 401.993,2116.4 257.716,1866.19 l -42.572,134.48 2.739,3.21 z m -88.858,-187.47 118.565,205.62 0.039,0.02 -0.003,0.04 179.748,311.72 -137.349,-441.88 z m 154.301,53.97 -65.656,-211.23 -135.454,76.09 32.257,55.94 z M 422.48,2243.62 585.516,2434.66 429.267,2163.7 Z M 252.722,2044.71 407.267,2225.8 c 2.472,-29.12 6.994,-82.37 6.994,-82.37 z m 523.25,49.48 -109.456,352.14 288.83,-500.89 z m 203.3,-190.24 32.398,-56.19 -135.45,-76.09 -91.181,293.35 z m -512.823,416.87 -245.716,-287.92 76.293,226.85 1.812,1.27 z m -116.225,-23.77 238.872,167.48 -100.934,-118.27 z m 496.925,-17.94 -158.245,185.42 271.953,-190.68 z M 981.9,2257 l 75.37,-224.1 -195.781,229.4 z m -149.67,-498.02 -183.922,-40.61 -0.225,90.1 z m -92.015,394.1 119.421,-384.2 -211.596,56.86 -0.637,255.45 z m -92.865,-50.85 -0.017,6.77 0.849,340.17 86.752,-279.1 z m 415.51,-101.56 -42.58,-134.48 -327.796,568.47 z m -251.044,398.04 -121.187,84.97 165.328,-19.37 z m -224.445,84.97 -121.187,-84.97 -44.141,65.6 z"
     id="path1"
     style="clip-rule:evenodd;fill:#f9f9f9;fill-rule:evenodd;stroke-linejoin:round;stroke-miterlimit:2" /></g>&#10;    </g></g></g></svg>
