<?xml version="1.0" encoding="UTF-8" standalone="no"?>
<!-- Created with Inkscape (http://www.inkscape.org/) -->

<svg
   version="1.1"
   id="svg1"
   width="720"
   height="720"
   viewBox="0 0 720 720"
   sodipodi:docname="Unknown.png"
   xmlns:inkscape="http://www.inkscape.org/namespaces/inkscape"
   xmlns:sodipodi="http://sodipodi.sourceforge.net/DTD/sodipodi-0.dtd"
   xmlns="http://www.w3.org/2000/svg"
   xmlns:svg="http://www.w3.org/2000/svg">
  <defs
     id="defs1" />
  <sodipodi:namedview
     id="namedview1"
     pagecolor="#ffffff"
     bordercolor="#cccccc"
     borderopacity="1"
     inkscape:showpageshadow="0"
     inkscape:pageopacity="1"
     inkscape:pagecheckerboard="0"
     inkscape:deskcolor="#d1d1d1" />
  <g
     inkscape:groupmode="layer"
     inkscape:label="Image"
     id="g1">
    <path
       style="fill:#000000"
       d="m 81.325469,459.64082 c -4.504202,-3.38748 -9.523277,-8.60497 -14.773603,-15.35763 l -5.305913,-6.82415 -21.163909,-0.17585 -21.163909,-0.17584 13.372702,-33.80827 13.372702,-33.80826 4.881366,-0.19174 4.881365,-0.19173 2.618068,-7 c 1.439937,-3.85 4.494027,-10.7252 6.786865,-15.27822 2.292838,-4.55302 4.257455,-8.49399 4.365815,-8.75772 0.108359,-0.26372 -1.00189,-1.86473 -2.467222,-3.55779 -8.921868,-10.30841 -9.102625,-21.34876 -0.522007,-31.88344 l 3.085198,-3.7878 0.18684,-8.5072 0.18684,-8.50721 3.614978,4.54538 c 3.599737,4.52621 3.626441,4.5437 6.333334,4.14636 12.097062,-1.77568 34.301731,-1.77775 46.137181,-0.004 2.74725,0.41165 2.75855,0.40441 6.33334,-4.0589 l 3.58117,-4.47129 0.18778,8.55458 0.18778,8.55458 2.23458,2.33981 c 5.52697,5.78727 8.39228,13.62783 7.17138,19.62353 -1.00958,4.95787 -2.35284,7.74396 -6.07499,12.60027 l -3.32734,4.34118 2.87028,4.28035 c 1.57866,2.35419 3.78472,6.50353 4.90236,9.22075 3.47308,8.44384 3.96325,7.61984 -4.6536,7.82289 -12.54965,0.29573 -17.32237,1.53602 -21.628,5.6205 l -2.12976,2.02037 -1.73028,-2.05632 c -0.95165,-1.13098 -3.56618,-2.97373 -5.81005,-4.09501 l -4.07977,-2.03869 H 90.525122 c -13.921225,0 -20.246465,0.84397 -25.237264,3.36737 -5.451374,2.75626 -10.169896,10.44649 -12.267521,19.99356 -1.283151,5.84009 -2.207787,24.00245 -1.169513,22.97241 0.369596,-0.36667 4.522387,-9.5676 9.228423,-20.44652 8.229759,-19.02469 8.633379,-19.79378 10.571925,-20.14447 1.108522,-0.20054 8.324638,-0.5696 16.035813,-0.82015 14.840535,-0.48218 17.178155,-0.19784 20.618015,2.50795 0.9469,0.74484 2.19351,2.26675 2.77025,3.38203 1.03506,2.00159 0.92982,2.33486 -8.14817,25.80398 l -9.196765,23.7762 -3.619344,-1.96032 c -4.378291,-2.37138 -9.9235,-2.78167 -26.522742,-1.96238 l -10.745105,0.53034 1.957775,6.56511 c 1.076776,3.61081 1.830586,6.6923 1.675133,6.84775 -0.155453,0.15545 -6.155341,0.20115 -13.333085,0.10156 l -13.050443,-0.18108 10.620415,-27.30743 c 5.841228,-15.01908 10.620414,-27.56309 10.620414,-27.87557 0,-0.31248 -0.970004,-0.47414 -2.155564,-0.35924 l -2.155564,0.2089 -11.822631,29.66637 c -6.502448,16.31667 -11.832444,29.89167 -11.844436,30.16667 -0.01199,0.275 7.628195,0.5 16.978195,0.5 h 17 v -2 -2 h 12.68759 c 10.662864,0 12.748828,0.15958 13.071326,1 0.310113,0.80814 1.844981,1 8,1 6.155018,0 7.689888,-0.19186 7.999998,-1 0.33108,-0.86278 3.615513,-1 23.934793,-1 h 23.55106 l 0.21095,1.83333 c 0.20539,1.78503 0.33462,1.83842 4.9047,2.02639 l 4.69374,0.19305 11.80626,-30.93957 C 174.68719,386.20378 180,372.09191 180,371.86083 c 0,-0.23108 -1.14353,-0.42015 -2.54117,-0.42015 h -2.54116 l -11.58434,29 c -11.42441,28.59967 -11.61021,29 -13.45883,29 -1.03097,0 -1.8745,-0.12513 -1.8745,-0.27806 0,-0.15294 0.62677,-1.72794 1.39282,-3.5 3.84857,-8.90271 6.12612,-21.75757 4.88952,-27.59716 l -0.62642,-2.95811 -3.93415,10.19724 c -2.87836,7.46063 -4.18312,10.10171 -4.86185,9.84125 -0.51023,-0.19579 -5.03744,-0.54817 -10.06047,-0.78305 -10.62096,-0.49666 -20.67192,0.41807 -29.65543,2.69892 -3.37921,0.85795 -6.251123,1.4621 -6.382023,1.34255 -0.1309,-0.11955 3.713353,-10.36026 8.542773,-22.75714 9.8467,-25.27595 10.22652,-25.90314 18.01223,-29.74364 4.07937,-2.01225 4.7994,-2.14213 13.0807,-2.35947 l 8.7637,-0.23 2.01046,5.56333 c 1.98246,5.48587 3.66196,12.82769 4.52761,19.79222 0.24352,1.95922 0.69187,3.30922 0.99633,3 0.46402,-0.47128 10.63753,-27.23065 10.63753,-27.9799 0,-0.13694 -1.30391,-0.24898 -2.89758,-0.24898 -5.81664,0 -15.10242,-0.88118 -15.10242,-1.43316 0,-0.31176 4.275,-0.56626 9.5,-0.56555 l 9.5,10e-4 2.33334,3.4105 c 1.28333,1.87578 2.54649,3.7502 2.80701,4.16538 0.26612,0.42409 3.0655,0.90094 6.38847,1.08821 l 5.91477,0.33333 -13.11215,33.33333 -13.11216,33.33334 -6.69783,0.18912 -6.69784,0.18912 -4.72188,6.20021 c -4.57524,6.00765 -13.90716,15.55693 -16.62344,17.01064 -1.22059,0.65323 -1.531,0.25005 -3.67332,-4.77111 -1.28704,-3.01656 -3.15858,-7.80965 -4.15897,-10.65132 -1.00039,-2.84166 -1.94033,-5.16666 -2.08877,-5.16666 -0.14843,0 -2.36987,2.1 -4.93654,4.66666 -2.56666,2.56696 -4.92129,4.66696 -5.23249,4.66696 -0.31121,0 -2.70198,-2.14889 -5.312823,-4.7753 -2.61085,-2.62642 -4.864512,-4.65142 -5.008146,-4.5 -0.143634,0.15141 -1.16294,2.8253 -2.265123,5.94197 -2.100392,5.93932 -5.414123,13.9979 -6.08907,14.80786 -0.217487,0.26099 -1.441891,-0.31248 -2.720899,-1.27439 z m 19.829221,-24.52391 c 0.46898,-0.83802 3.83405,-1.01756 21.86646,-1.16667 18.42139,-0.15232 21.31218,-0.31187 21.31218,-1.17623 0,-0.8646 -2.91345,-1.02382 -21.51737,-1.17592 -18.70807,-0.15296 -21.56793,-0.0442 -21.90466,0.83333 -0.57372,1.49511 -20.763345,1.50388 -21.336882,0.009 -0.31733,-0.82695 -2.101916,-1 -10.312411,-1 -5.46077,0 -9.928674,0.12546 -9.928674,0.27881 0,0.15334 0.182097,0.75334 0.40466,1.33333 0.342866,0.8935 1.859011,1.05453 9.928674,1.05453 7.850797,0 9.591431,0.17568 9.907751,1 0.566359,1.4759 20.754662,1.48485 21.580272,0.01 z M 52,412.068 c 0,-2.57338 -0.246547,-3.88697 -0.679344,-3.61949 -0.637531,0.39402 -3.987323,6.52963 -3.987323,7.30334 0,0.19552 1.05,0.3555 2.333334,0.3555 H 52 Z m 64.05303,-3.7647 c 3.50343,-2.06952 5.04365,-7.66688 2.93722,-10.67423 -0.93302,-1.33208 -0.88237,-1.569 0.66667,-3.11803 4.39435,-4.39436 -0.92585,-10.53515 -5.44729,-6.28748 -2.20914,2.07538 -2.06962,3.72816 0.16625,1.96942 1.95258,-1.5359 3.33079,-1.27932 3.85291,0.71728 0.4453,1.70282 -2.81169,5.19709 -4.84417,5.19709 -1.76402,0 -1.80088,1.11137 -0.0552,1.66541 0.73116,0.23206 1.78116,0.87371 2.33333,1.42588 1.15339,1.15339 1.32949,5.05474 0.31382,6.95253 -0.73046,1.3649 -2.95007,1.74436 -3.64321,0.62284 -0.22661,-0.36666 -1.14431,-0.66666 -2.03934,-0.66666 -1.13357,0 -1.62732,0.37084 -1.62732,1.22222 0,0.67222 0.2,1.42222 0.44444,1.66667 0.85282,0.85282 5.03124,0.43573 6.94192,-0.69294 z m 15.2803,0.71088 c 0,-0.23458 -0.44911,-0.75958 -0.99802,-1.16667 -0.87073,-0.64575 -0.66481,-2.01529 1.61433,-10.73694 1.43679,-5.49823 2.48784,-10.1213 2.33566,-10.27348 -0.4906,-0.4906 -5.61863,1.30162 -5.61863,1.96368 0,0.35195 0.45,0.63991 1,0.63991 1.36787,0 1.22712,1.15495 -1.2187,10 -1.71086,6.18714 -2.40893,7.79367 -3.61731,8.32475 -2.52656,1.11044 -1.68279,1.67525 2.50267,1.67525 2.2,0 4,-0.19193 4,-0.4265 z m 12,0 c 0,-0.23458 -0.45141,-0.75958 -1.00315,-1.16667 -0.8787,-0.64834 -0.7122,-1.87346 1.34208,-9.87509 1.28987,-5.02421 2.52339,-9.59921 2.74114,-10.16666 0.47385,-1.23483 -0.69058,-1.33057 -3.64725,-0.29986 -2.17805,0.75927 -2.84606,1.93478 -1.09948,1.93478 1.33578,0 1.27924,0.52253 -0.94664,8.74911 -2.16976,8.01918 -3.01393,9.91756 -4.41015,9.91756 -0.5371,0 -0.97655,0.3 -0.97655,0.66666 0,0.37037 1.77778,0.66667 4,0.66667 2.2,0 4,-0.19193 4,-0.4265 z m -65.143009,-19.6716 c 2.276541,-1.21257 3.098691,-2.66547 3.12181,-5.51685 0.01782,-2.19735 -0.51112,-3.22697 -3.312131,-6.44736 -3.36092,-3.86413 -4.001644,-5.66938 -2.533333,-7.13769 C 77.614176,368.09317 82,370.34091 82,373.58902 c 0,2.50883 1.18901,1.02194 1.851224,-2.31501 0.76989,-3.87953 0.640464,-4.40465 -0.792498,-3.2154 -0.711277,0.59031 -1.332314,0.6159 -2.305617,0.095 -4.115026,-2.2023 -9.419776,0.53665 -9.419776,4.86361 0,1.7919 0.744111,3.1974 3.333334,6.29611 3.800738,4.54862 4.255889,6.82546 1.699308,8.5006 C 73.550924,389.65842 70,387.56434 70,384.05973 c 0,-1.07381 -0.264386,-1.95238 -0.587523,-1.95238 -0.561188,0 -2.080528,4.96863 -2.077881,6.79521 0.0017,1.16826 8.817607,1.5256 10.855725,0.44002 z m 12.476346,0.13123 c 0,-0.34845 -0.478711,-0.90144 -1.063803,-1.22888 -0.971355,-0.54359 -0.965991,-0.94393 0.06173,-4.6067 l 1.125532,-4.01136 3.502604,0.0506 c 2.314467,0.0335 4.120767,-0.35441 5.324947,-1.14341 2.402923,-1.57446 3.778953,-4.84012 2.953863,-7.01027 -1.0915,-2.87088 -2.46544,-3.37363 -9.238206,-3.38045 -6.110891,-0.006 -6.282804,0.0341 -4.894671,1.14547 l 1.438661,1.15187 -1.241246,4.66667 c -2.751018,10.3429 -3.644999,12.65354 -5.155303,13.32475 -2.554016,1.13505 -1.634193,1.67525 2.852558,1.67525 2.383334,0 4.333334,-0.2851 4.333334,-0.63354 z m 0.666666,-11.76386 c 0,-0.21857 0.463458,-1.99163 1.029907,-3.94015 1.074257,-3.69531 2.196152,-4.65916 4.564017,-3.92105 4.670563,1.45591 2.00975,8.2586 -3.230287,8.2586 -1.3,0 -2.363637,-0.17883 -2.363637,-0.3974 z m 15.543487,-35.0063 c 2.08441,-3.70536 3.78985,-7.08975 3.78985,-7.52087 0,-0.43111 -1.8,-2.56506 -4,-4.7421 l -4,-3.95826 -4.000003,3.95826 c -2.2,2.17704 -4,4.23374 -4,4.57043 0,0.84854 7.564633,14.42957 8.037263,14.42957 0.21067,0 2.08847,-3.03166 4.17289,-6.73703 z m -19.623442,-8.23476 c 2.872358,-1.01343 6.022944,-3.01279 6.059005,-3.84504 0.01152,-0.26593 -0.696853,-0.21059 -1.574169,0.12296 -4.974307,1.89123 -9.910162,-3.79478 -7.440263,-8.57104 1.670931,-3.23123 5.296671,-4.3792 8.468982,-2.68143 1.750793,0.937 3.422954,4.9645 2.832964,6.82338 -0.39436,1.24253 -0.31517,1.32656 0.56321,0.59757 1.07656,-0.89346 2.50356,-5.6332 2.50356,-8.31549 0,-5.96248 -4.54227,-12.94586 -10,-15.37422 -13.310209,-5.92223 -27.018433,7.16241 -22.229209,21.21801 2.810096,8.24718 12.554323,12.94016 20.81592,10.0253 z m 45.697492,-1.29751 c 14.61789,-8.56665 8.60244,-31.28062 -8.2842,-31.28062 -12.10113,0 -20.27754,13.27422 -14.77862,23.99274 l 1.24458,2.42593 -0.0663,-3.08557 c -0.0536,-2.49253 0.26974,-3.4217 1.68216,-4.83438 4.53122,-4.53204 11.89956,0.0476 9.88718,6.14516 -1.23142,3.73122 -5.26074,5.37891 -8.67949,3.54925 -2.35863,-1.2623 -1.36784,0.53206 1.1793,2.13575 4.14259,2.6082 6.32617,3.21319 10.67133,2.95663 2.9516,-0.17428 5.00249,-0.74984 7.14407,-2.00489 z M 410.38544,456.5785 c -0.59495,-2.6742 -1.98654,-6.7754 -3.09242,-9.11378 l -2.01069,-4.2516 -2.80783,2.74134 c -3.84913,3.75798 -8.29299,5.54376 -14.86678,5.97426 -6.31814,0.41376 -8.94175,-0.28357 -13.14661,-3.49421 -9.43643,-7.20525 -16.54515,-24.72434 -20.55651,-50.6605 -1.94635,-12.58442 -2.41133,-37.85522 -0.95068,-51.66666 3.11823,-29.48499 12.05438,-49.4861 24.93578,-55.81188 l 3.77697,-1.85479 L 401,288.24084 420.33333,288.041 423.5,284.93257 l 3.16667,-3.10843 v 8.2148 8.21479 l 3.23416,3.5387 c 9.11276,9.97081 8.74124,21.38379 -1.08982,33.47912 l -2.30092,2.83087 1.24496,1.75346 c 3.91068,5.50804 7.42962,12.56112 8.47926,16.99517 l 0.41277,1.74371 -8.23161,0.3171 c -7.41801,0.28577 -8.66066,0.51788 -12.57246,2.34844 -2.38747,1.11723 -5.57883,3.14977 -7.09193,4.51676 -1.51309,1.36699 -2.75108,2.16097 -2.75108,1.76439 0,-1.43537 -4.07778,-5.32045 -6.67515,-6.35971 l -2.65818,-1.0636 v -6.79336 c 0,-6.40572 0.1533,-7.16723 2.68665,-13.34522 2.9398,-7.16919 2.92354,-7.44895 -0.62928,-10.83027 l -2.05737,-1.95806 v -15.11002 c 0,-14.59923 -0.0512,-15.1866 -1.51329,-17.37527 -3.99948,-5.98686 -12.10899,-5.84826 -15.85433,0.27096 -1.27612,2.08496 -1.30035,3.69601 -1.13484,75.46378 0.16639,72.14658 0.1907,73.36273 1.50246,75.14957 1.79805,2.44928 6.24717,4.14005 9.35833,3.55639 1.32958,-0.24943 3.50408,-1.4505 4.83606,-2.67117 2.27227,-2.08238 2.43654,-2.50716 2.68756,-6.94945 l 0.26735,-4.7315 18.67772,-0.17692 c 18.53761,-0.17559 18.68519,-0.18817 19.67333,-1.67692 l 0.99561,-1.5 h -19.74798 c -17.02516,0 -19.74798,-0.13657 -19.74798,-0.9905 0,-0.85133 2.92629,-1.01526 20.82644,-1.16667 l 20.82645,-0.17616 3.13484,-13.66667 c 1.72417,-7.51667 3.15227,-13.91067 3.17356,-14.20891 0.0213,-0.29823 -0.90904,-0.44823 -2.06739,-0.33333 -2.01382,0.19975 -2.21525,0.501 -4.59741,6.87557 l -2.49132,6.66667 -19.40259,0.17674 -19.40258,0.17673 v -9.58515 -9.58514 l 4.7245,-11.59159 c 4.28997,-10.52547 5.02779,-11.8742 8.02209,-14.66433 6.29554,-5.86626 12.19968,-7.92726 22.70918,-7.92726 4.2501,0 5.21089,-0.18951 5.21089,-1.0278 0,-1.06439 1.11606,-1.05691 14.42622,0.0967 4.79138,0.41528 6.56346,1.83794 7.41529,5.95316 l 0.54742,2.64459 6.70647,0.33333 6.70648,0.33333 -4.77634,13 c -2.62699,7.15 -8.32402,22.675 -12.66007,34.5 l -7.88373,21.5 -7.0742,0.0195 -7.0742,0.0195 -2.92511,5.3016 c -4.75898,8.62549 -13.69206,17.32609 -17.78894,17.32609 -1.30149,0 -1.61941,-0.60213 -2.56718,-4.86218 z M 456.823,404.44068 c 6.15088,-16.5 11.36449,-30.675 11.58581,-31.5 0.35052,-1.3066 0.14976,-1.5 -1.55711,-1.5 h -1.95951 l -11.01915,29.83333 -11.01915,29.83334 -2.09361,0.2089 c -1.7303,0.17266 -2.09361,0.49685 -2.09361,1.86818 0,1.58208 0.16218,1.64989 3.48646,1.45776 l 3.48646,-0.20151 z m -45.77693,-2.40787 c 0.25194,-0.40766 0.0537,-0.99113 -0.44056,-1.29659 -0.71566,-0.44231 -0.43838,-1.50681 1.36173,-5.22781 1.2432,-2.56983 2.48561,-4.53321 2.76092,-4.36306 0.2753,0.17015 0.71067,2.27139 0.96747,4.66942 0.40834,3.81299 0.31034,4.47532 -0.78102,5.2787 -1.86002,1.36921 -0.34298,1.69435 7.03069,1.50686 4.31132,-0.10963 6.36541,-0.42076 6.55556,-0.99298 0.1523,-0.45834 -0.19808,-0.83334 -0.77864,-0.83334 -1.41957,0 -1.36618,-1.14504 0.67174,-14.40701 1.70572,-11.10017 2.37133,-13.59299 3.6295,-13.59299 0.35376,0 0.64321,-0.3 0.64321,-0.66666 0,-0.4 -2.66667,-0.66667 -6.66667,-0.66667 -4,0 -6.66667,0.26667 -6.66667,0.66667 0,0.36666 0.3,0.66666 0.66667,0.66666 0.36667,0 0.65251,0.525 0.63521,1.16667 -0.0445,1.65192 -3.68552,8.49828 -4.13212,7.76988 -0.20342,-0.33177 -0.5863,-2.34347 -0.85086,-4.47045 -0.41544,-3.34017 -0.31095,-3.99602 0.76672,-4.81213 1.12825,-0.85442 0.91258,-0.94693 -2.25228,-0.9661 -3.11983,-0.0189 -4.70219,0.80029 -2.78213,1.44031 0.39483,0.13161 1.24352,3.37248 1.88597,7.20192 l 1.16809,6.96263 -2.834,5.35364 c -1.55871,2.9445 -3.60405,6.21269 -4.54521,7.26266 -0.94115,1.04996 -1.54683,2.17496 -1.34595,2.5 0.52515,0.8497 4.78887,0.72959 5.33263,-0.15023 z m 8.31582,-2.53877 c -0.37676,-0.70398 -1.0404,-4.09376 -1.47477,-7.53285 l -0.78976,-6.25289 3.30178,-6.30048 c 2.81435,-5.37035 3.5699,-6.33162 5.11799,-6.51142 1.45052,-0.16848 1.8162,0.0618 1.8162,1.14376 0,2.59183 -3.34338,23.7437 -3.9886,25.23385 -0.79604,1.83849 -3.05002,1.96301 -3.98284,0.22003 z m 30.82679,-22.14724 4.96671,-12.42721 -2.41103,-0.39878 c -4.50682,-0.74544 -12.07798,-0.48215 -12.07418,0.41987 0.002,0.45833 0.75035,6.38333 1.66315,13.16667 0.91281,6.78333 1.66123,12.46833 1.66316,12.63333 0.0163,1.39353 1.9784,-2.85053 6.19219,-13.39388 z m -26.44352,-46.28418 c 4.25028,-2.62775 7.04952,-7.13553 7.4531,-12.00217 0.93567,-11.28297 -9.42592,-19.38149 -20.76806,-16.23211 -3.43937,0.95501 -8.09835,5.36549 -9.47466,8.9693 -1.52898,4.0036 -1.09371,10.59491 0.90389,13.68748 l 1.47848,2.28889 -0.11646,-2 c -0.18877,-3.24198 0.75226,-5.05705 3.13886,-6.05423 2.4771,-1.035 3.90796,-0.73908 6.13969,1.26978 3.51259,3.16181 0.44471,9.52961 -4.32302,8.973 -2.77875,-0.3244 -2.78315,0.38117 -0.0103,1.65449 3.76985,1.73115 4.0827,1.7922 8.26278,1.61234 3.18586,-0.13708 4.81159,-0.61859 7.31571,-2.16677 z m 188.96749,127.86233 c -8.33818,-4.68336 -15.36242,-12.67575 -20.46633,-23.28723 -1.88379,-3.91656 -2.68561,-4.9298 -4.12561,-5.21346 -0.98306,-0.19364 -3.13738,-1.04918 -4.78738,-1.90119 -2.37375,-1.22574 -3.4175,-2.35992 -5,-5.43319 l -2,-3.88407 L 576,399.15658 l -0.33333,-20.04923 -2.83334,-0.205 -2.83333,-0.205 v -11.96167 c 0,-6.57892 0.225,-12.00317 0.5,-12.05389 0.275,-0.0507 5.43848,-0.27573 11.47441,-0.5 l 10.97441,-0.40778 0.41622,-2 c 0.55694,-2.67614 2.70959,-6.75709 5.23533,-9.925 1.13646,-1.42542 2.0663,-2.88336 2.0663,-3.23986 0,-0.35651 -1.47855,-2.26596 -3.28566,-4.24322 -5.10393,-5.58451 -7.02277,-10.1173 -7.02377,-16.59192 -9.8e-4,-6.32826 1.28941,-9.29639 6.38305,-14.68216 3.1709,-3.35276 3.26197,-3.56298 3.34252,-7.71559 0.0455,-2.3479 0.27054,-6.34739 0.5,-8.88776 L 601,281.86966 l 4.48341,4.84875 4.48341,4.84875 6.7094,-0.72991 c 9.63558,-1.04824 25.22985,-0.89921 34.71798,0.33179 l 8.1832,1.0617 4.76261,-5.19814 4.76261,-5.19814 0.73216,8.75131 0.73216,8.75132 3.16121,3.8811 c 4.80469,5.89887 6.61083,10.26173 6.57778,15.88916 -0.034,5.77967 -2.02865,10.02004 -6.94511,14.76402 -1.84449,1.77979 -3.35524,3.46741 -3.35722,3.75027 -0.002,0.28286 0.8214,1.75923 1.82973,3.28083 1.00834,1.52159 2.62235,5.19016 3.58669,8.15237 l 1.75336,5.38584 11.65164,0.18166 11.65164,0.18167 0.4236,4.485 c 0.23298,2.46675 0.41368,16.035 0.40156,30.15167 -0.0217,25.23764 -0.0475,25.72567 -1.54582,29.19665 -3.2494,7.52755 -8.56177,11.67126 -16.09853,12.55706 -3.54,0.41606 -3.79824,0.57642 -5.11393,3.17557 -2.74297,5.41876 -7.43279,12.08471 -11.45005,16.27471 -4.29939,4.48425 -11.84422,10.79601 -12.90514,10.79601 -0.97296,0 -3.24079,-2.73725 -4.69488,-5.66667 -0.72801,-1.46666 -1.84806,-5.06666 -2.48898,-8 -0.64093,-2.93333 -1.28192,-5.74012 -1.42443,-6.23731 -0.16593,-0.57893 -1.82385,0.55976 -4.61064,3.16666 -2.39334,2.23886 -4.95566,4.07065 -5.69404,4.07065 -0.75237,0 -3.29478,-1.90485 -5.7837,-4.33333 -2.44266,-2.38333 -4.49349,-4.33333 -4.55741,-4.33333 -0.0639,0 -0.32781,1.425 -0.58644,3.16666 -0.54874,3.69544 -3.71692,12.10082 -5.88079,15.60215 l -1.50517,2.43548 z M 646,392.77401 v -34.66666 h -11 -11 v 34.66666 34.66667 h 11 11 z m -25.33333,25.33334 v -8.66667 H 610 599.33333 v -12.66667 -12.66666 h -10.04036 -10.04035 l 0.20702,17.5 c 0.20285,17.14686 0.23937,17.55203 1.81005,20.07872 2.89903,4.66355 4.69841,5.05652 23.23031,5.0733 l 16.16667,0.0146 z m 69.74944,7.29326 c 3.48345,-1.68631 5.38815,-5.22494 6.00885,-11.16351 l 0.43165,-4.12975 H 683.4283 670 v -4.33334 -4.33333 h 13.33333 13.33334 v -8.66667 -8.66666 H 673 649.33333 v 21.33333 21.33333 h 19.12285 c 17.94629,0 19.29741,-0.0845 21.95993,-1.3734 z m -69.74944,-57.95993 v -9.33333 H 597 573.33333 v 9.33333 9.33333 H 597 620.66667 Z m 75.85214,0.16667 -0.18548,-9.16667 -23.5,-0.1752 -23.5,-0.17519 v 9.34186 9.34186 h 23.68548 23.68548 z M 639.9493,342.651 c 2.22789,-4.09218 4.03701,-7.61358 4.02027,-7.82532 -0.0167,-0.21175 -1.95558,-1.8346 -4.30855,-3.60633 -2.67981,-2.01784 -4.59871,-3.03174 -5.13623,-2.71386 -0.47197,0.27911 -2.43018,1.83763 -4.35157,3.46339 l -3.49346,2.95591 4.15883,7.86175 c 2.28735,4.32396 4.36159,7.73643 4.60942,7.58327 0.24783,-0.15317 2.27341,-3.62663 4.50129,-7.71881 z m -21.06878,-7.92507 c 5.49008,-1.52451 11.09894,-9.11275 11.11297,-15.03477 0.0147,-6.22502 -3.4922,-11.92148 -8.99748,-14.61497 -10.90516,-5.3354 -23.24172,2.12147 -23.21297,14.03116 0.0168,6.97048 3.05563,11.8317 9.21696,14.74447 3.62584,1.71412 7.76007,2.01829 11.88052,0.87411 z m -1.71387,-4.00532 c -1.83335,-1.06783 -3.33457,-4.51875 -2.83563,-6.5184 1.8487,-7.40922 12.33565,-6.3327 12.33565,1.2663 0,4.29272 -5.71888,7.45441 -9.50002,5.2521 z m 46.50002,3.13512 c 6.01504,-2.83655 9.00818,-7.63511 8.98536,-14.40518 -0.0172,-5.11179 -1.45459,-8.69493 -4.73729,-11.80942 -6.05253,-5.74238 -16.10184,-5.72612 -22.50297,0.0364 -2.61394,2.35317 -4.73311,7.63012 -4.72395,11.76312 0.0262,11.80068 12.25511,19.47212 22.97885,14.41505 z m -16.80065,-3.41712 c -1.89713,-1.3288 -3.08823,-4.99597 -2.29587,-7.06857 1.28241,-3.35443 4.54756,-4.99061 7.81033,-3.9138 4.49667,1.48403 5.7043,6.66889 2.33747,10.03572 -2.21299,2.21299 -5.48139,2.60704 -7.85193,0.94665 z M 285.33333,447.10735 c 0,-0.55556 0.5926,-1 1.33334,-1 1.32563,0 1.33333,-0.44445 1.33333,-77 v -77 h -3.66667 c -2.01666,0 -3.66666,-0.3 -3.66666,-0.66667 0,-0.42828 6.55555,-0.66667 18.33333,-0.66667 11.77778,0 18.33333,0.23839 18.33333,0.66667 0,0.36667 -1.5,0.66667 -3.33333,0.66667 h -3.33333 v 77 77 h 8.0331 c 9.30231,0 10.21913,-0.32656 14.86684,-5.29534 6.64449,-7.10349 10.29398,-19.92812 11.77063,-41.363 0.70532,-10.23831 0.95056,-12.00102 1.57018,-11.28611 0.13242,0.15278 0.42946,13.70278 0.6601,30.11111 l 0.41934,29.83334 H 316.6601 c -27.40157,0 -31.32677,-0.1253 -31.32677,-1 z m 111.33334,-71.55556 c 0,-7.6063 0.24725,-12.11111 0.66474,-12.11111 0.36561,0 1.86561,1.08491 3.33334,2.41091 1.95567,1.76683 2.66858,2.93172 2.66858,4.36044 0,1.57499 -5.43386,16.14602 -6.40422,17.17309 -0.14434,0.15278 -0.26244,-5.17222 -0.26244,-11.83333 z"
       id="path1" />
  </g>
</svg>
