<svg xmlns="http://www.w3.org/2000/svg" xmlns:xlink="http://www.w3.org/1999/xlink" version="1.1" width="500pt" height="500pt" viewBox="0 0 500 500">
<g id="layer_1" data-name="BACKGROUND">
<g id="layer_2" data-name="Warstwa 2">
<g id="layer_3" data-name="Warstwa 3">
<path transform="matrix(1,0,0,-1,376.5947,223.29541)" d="M0 0-38.172 22.04-76.345 0V6.582 13.775L-38.172 35.815 0 13.775ZM0-20.191V-30.302L-38.172-52.34-76.345-30.302V-13.945L-38.172 8.095 0-13.945ZM-88.42-30.302-126.595-52.34-164.768-30.302V-13.945L-126.595 8.095-88.42-13.945ZM-176.844-30.302-215.016-52.34-253.189-30.302V-13.945L-215.016 8.095-176.844-13.945ZM-253.189 13.775-215.016 35.815-176.844 13.775V0L-215.016 22.04-253.189 0ZM-126.595 35.815-88.42 13.775V0L-126.595 22.04-164.768 0V13.775ZM0 27.721-38.172 49.761-76.345 27.721-82.383 24.234-88.42 27.72-126.595 49.761-170.806 24.234-215.016 49.761-253.189 27.72-265.266 20.748V-37.275L-215.016-66.286-176.844-44.247-170.806-40.761-164.768-44.247-126.595-66.286-88.42-44.247V-67.186L-126.595-89.224-164.768-67.186-176.844-74.159-126.595-103.169-76.345-74.159V-44.247L-38.172-66.286 0-44.247V-59.313L12.076-66.286V-37.275-22.812 20.748Z" fill="#231f20"/>
</g>
</g>
</g>
</svg>
